<svg xmlns="http://www.w3.org/2000/svg" x="0px" y="0px"
width="24" height="24"
viewBox="0 0 172 172"
style=" fill:#000000;"><g fill="none" fill-rule="nonzero" stroke="none" stroke-width="1" stroke-linecap="butt" stroke-linejoin="miter" stroke-miterlimit="10" stroke-dasharray="" stroke-dashoffset="0" font-family="none" font-weight="none" font-size="none" text-anchor="none" style="mix-blend-mode: normal"><path d="M0,172v-172h172v172z" fill="none"></path><g fill="#ceaa37"><path d="M57.33333,21.5c-19.78717,0 -35.83333,16.04617 -35.83333,35.83333v57.33333c0,19.78717 16.04617,35.83333 35.83333,35.83333h57.33333c19.78717,0 35.83333,-16.04617 35.83333,-35.83333v-57.33333c0,-19.78717 -16.04617,-35.83333 -35.83333,-35.83333zM129,35.83333c3.956,0 7.16667,3.21067 7.16667,7.16667c0,3.956 -3.21067,7.16667 -7.16667,7.16667c-3.956,0 -7.16667,-3.21067 -7.16667,-7.16667c0,-3.956 3.21067,-7.16667 7.16667,-7.16667zM86,50.16667c19.78717,0 35.83333,16.04617 35.83333,35.83333c0,19.78717 -16.04617,35.83333 -35.83333,35.83333c-19.78717,0 -35.83333,-16.04617 -35.83333,-35.83333c0,-19.78717 16.04617,-35.83333 35.83333,-35.83333zM86,64.5c-11.87412,0 -21.5,9.62588 -21.5,21.5c0,11.87412 9.62588,21.5 21.5,21.5c11.87412,0 21.5,-9.62588 21.5,-21.5c0,-11.87412 -9.62588,-21.5 -21.5,-21.5z"></path></g></g></svg>
