<?xml version="1.0" encoding="UTF-8"?>
<svg xmlns="http://www.w3.org/2000/svg" xmlns:xlink="http://www.w3.org/1999/xlink" viewBox="0 0 64 64" width="64px" height="64px">
<g id="surface361857">
<path style=" stroke:none;fill-rule:nonzero;fill:rgb(0%,0%,0%);fill-opacity:1;" d="M 43.101562 52 L 20.898438 52 C 16 52 12 48 12 43.101562 L 12 20.898438 C 12 16 16 12 20.898438 12 L 43.101562 12 C 48 12 52 16 52 20.898438 L 52 43.101562 C 52 48 48 52 43.101562 52 Z M 43.101562 52 "/>
<path style=" stroke:none;fill-rule:nonzero;fill:rgb(18.039216%,17.647059%,17.647059%);fill-opacity:1;" d="M 12 20.898438 L 12 26.5 L 52 26.5 L 52 20.898438 C 52 16 48 12 43.101562 12 L 20.898438 12 C 16 12 12 16 12 20.898438 Z M 12 20.898438 "/>
<path style=" stroke:none;fill-rule:nonzero;fill:rgb(80.784315%,66.666669%,21.568628%);fill-opacity:1;" d="M 43.101562 53.5 L 20.898438 53.5 C 15.148438 53.5 10.5 48.851562 10.5 43.101562 L 10.5 20.898438 C 10.5 15.148438 15.148438 10.5 20.898438 10.5 L 43.101562 10.5 C 48.851562 10.5 53.5 15.148438 53.5 20.898438 L 53.5 43.101562 C 53.5 48.851562 48.851562 53.5 43.101562 53.5 Z M 20.898438 13.5 C 16.800781 13.5 13.5 16.800781 13.5 20.898438 L 13.5 43.101562 C 13.5 47.148438 16.800781 50.5 20.898438 50.5 L 43.101562 50.5 C 47.148438 50.5 50.5 47.199219 50.5 43.101562 L 50.5 20.898438 C 50.5 16.851562 47.199219 13.5 43.101562 13.5 Z M 20.898438 13.5 "/>
<path style=" stroke:none;fill-rule:nonzero;fill:rgb(22.745098%,22.745098%,22.745098%);fill-opacity:1;" d="M 32 24.5 C 27.859375 24.5 24.5 27.859375 24.5 32 C 24.5 36.140625 27.859375 39.5 32 39.5 C 36.140625 39.5 39.5 36.140625 39.5 32 C 39.5 27.859375 36.140625 24.5 32 24.5 Z M 32 24.5 "/>
<path style=" stroke:none;fill-rule:nonzero;fill:rgb(80.784315%,66.666669%,21.568628%);fill-opacity:1;" d="M 32 41 C 27.050781 41 23 36.949219 23 32 C 23 31.148438 23.648438 30.5 24.5 30.5 C 25.351562 30.5 26 31.148438 26 32 C 26 35.300781 28.699219 38 32 38 C 35.300781 38 38 35.300781 38 32 C 38 28.699219 35.300781 26 32 26 C 31.148438 26 30.5 25.351562 30.5 24.5 C 30.5 23.648438 31.148438 23 32 23 C 36.949219 23 41 27.050781 41 32 C 41 36.949219 36.949219 41 32 41 Z M 32 41 "/>
<path style=" stroke:none;fill-rule:nonzero;fill:rgb(80.784315%,66.666669%,21.568628%);fill-opacity:1;" d="M 26.898438 27.949219 C 26.5 27.949219 26.101562 27.800781 25.851562 27.5 C 25.550781 27.199219 25.398438 26.851562 25.398438 26.449219 C 25.398438 26.351562 25.398438 26.25 25.449219 26.148438 C 25.449219 26.050781 25.5 25.949219 25.550781 25.851562 C 25.601562 25.75 25.648438 25.648438 25.699219 25.601562 C 25.75 25.5 25.800781 25.449219 25.898438 25.351562 C 26.449219 24.800781 27.449219 24.800781 28 25.351562 C 28.050781 25.398438 28.148438 25.5 28.199219 25.601562 C 28.25 25.699219 28.300781 25.75 28.351562 25.851562 C 28.398438 25.949219 28.398438 26.050781 28.449219 26.148438 C 28.449219 26.25 28.5 26.351562 28.5 26.449219 C 28.5 26.851562 28.351562 27.25 28.050781 27.5 C 27.699219 27.800781 27.300781 27.949219 26.898438 27.949219 Z M 43 19 C 41.894531 19 41 19.894531 41 21 C 41 22.105469 41.894531 23 43 23 C 44.105469 23 45 22.105469 45 21 C 45 19.894531 44.105469 19 43 19 Z M 43 19 "/>
</g>
</svg>
