<?xml version="1.0" encoding="UTF-8"?>
<svg xmlns="http://www.w3.org/2000/svg" xmlns:xlink="http://www.w3.org/1999/xlink" viewBox="0 0 48 48" width="48px" height="48px">
<g id="surface1692378">
<path style=" stroke:none;fill-rule:nonzero;fill:rgb(0%,0%,0%);fill-opacity:1;" d="M 44 24 C 44 35.046875 35.046875 44 24 44 C 12.953125 44 4 35.046875 4 24 C 4 12.953125 12.953125 4 24 4 C 35.046875 4 44 12.953125 44 24 Z M 44 24 "/>
<path style=" stroke:none;fill-rule:nonzero;fill:rgb(80.784315%,66.666669%,21.568628%);fill-opacity:1;" d="M 12 18 L 17 18 L 17 35 L 12 35 Z M 12 18 "/>
<path style=" stroke:none;fill-rule:nonzero;fill:rgb(80.784315%,66.666669%,21.568628%);fill-opacity:1;" d="M 14.484375 16 L 14.457031 16 C 12.964844 16 12 14.886719 12 13.5 C 12 12.078125 12.996094 11 14.515625 11 C 16.035156 11 16.972656 12.078125 17 13.5 C 17 14.886719 16.035156 16 14.484375 16 Z M 14.484375 16 "/>
<path style=" stroke:none;fill-rule:nonzero;fill:rgb(80.784315%,66.666669%,21.568628%);fill-opacity:1;" d="M 36 35 L 36 25.273438 C 36 20.25 33.316406 18 29.738281 18 C 28.085938 18 26.386719 18.59375 25 19.9375 L 25 18 L 20 18 L 20 35 L 25 35 L 25 24.1875 L 25.003906 24.1875 C 25.394531 23.210938 26.308594 22.203125 27.808594 22.203125 C 29.773438 22.203125 31 23.703125 31 25.902344 L 31 35 Z M 36 35 "/>
</g>
</svg>
