<svg xml:space="preserve" viewBox="0 0 800 800" xmlns="http://www.w3.org/2000/svg"><path style="fill:#ceaa37;stroke:none;stroke-width:1.07481" d="M78.646 19.604c8.631 12.151 24.273 19.197 37.619 24.881 37.963 16.17 82.147 17.456 122.528 12.431 15.3-1.904 32.03-8.098 47.291-8.098 10.441 0 21.895 4.457 32.245 6.168 21.569 3.566 43.73 6.085 65.563 6.536V593.55c0 40.424-.796 78.644-22.571 113.93 29.439-8.663 36.838-52.586 39.934-78.461 3.777-31.563 1.982-63.884 1.982-95.658V378.59c22.476 0 45.643-1.75 67.713-6.235 9.156-1.861 19.576-8.049 28.564-8.634 7.014-.457 15.779 5.017 23.027 5.96 23.164 3.009 49.139-6.122 53.74-31.934-15.306 4.408-28.586 11.093-45.142 9.49-10.661-1.03-23.518-10.538-33.32-9.693-10.527.907-21.826 6.06-32.243 8.346-20.268 4.444-41.618 6.904-62.34 6.904V266.81c0-6.47-3.12-24.556 1.724-29.297 3.09-3.027 9.417-1.794 13.324-1.888 9.217-.236 18.803-1.33 27.945-2.59 11.845-1.632 23.934-3.197 35.468-6.452 5.688-1.606 12.835-6.017 18.728-5.84 9.17.27 19.457 5.349 28.564 7.16 33.82 6.724 95.754 10.254 106.406-34.179-30.734 12.796-58.621 22.442-92.434 15.64-9.105-1.834-18.397-4.632-26.87-8.451-5.18-2.335-11.364-7.263-17.197-7.288-10.78-.038-23.789 7.38-34.393 9.897-20.203 4.795-40.653 6.847-61.265 8.474V61.523c21 0 42.722-2.1 63.414-5.83 10.829-1.952 23.446-7.08 34.394-6.787 13.091.35 26.736 5.184 39.768 6.94C581.256 61.292 623.656 63.3 663.34 52c19.411-5.526 40.73-15.452 52.665-32.395-10.83 1.6-21.532 6.184-32.244 8.723-24.704 5.857-51.962 10.313-77.386 9.503-21.8-.696-44.243-2.301-65.563-7.353-12.487-2.96-28.22-11.207-40.843-11.248-10.538-.038-22.88 5.812-33.319 7.899-23.27 4.653-47.218 8.002-70.937 8.583-24.237.594-49.385-1.682-73.087-6.89-11.406-2.505-23.99-8.783-35.469-9.686-7.264-.572-16.583 3.698-23.645 5.441-13.731 3.389-27.876 6.074-41.918 7.76-49.655 5.96-95.437 3.341-142.95-12.732m-24.72 37.619C84.39 103.87 74.345 170.788 74.345 223.819v180.567c0 64.2-.166 124.982 23.027 185.942 13.554 35.597 34.41 69.557 59.916 97.808 63.865 70.737 147.292 99.957 240.574 99.957 55.955 0 108.608-9.918 157.997-37.47 68.218-38.057 120.864-105.202 143.997-179.641 17.076-54.95 16.15-109.711 16.15-166.596V219.52c0-51.926-8.372-116.946 21.496-162.296-27.36.644-34.252 43.614-37.326 64.488-10.5 71.275-4.592 146.237-4.592 218.186 0 51.146 3.59 103.873-1.256 154.772-6.266 65.802-33.097 130.883-78.374 179.493-17.092 18.349-35.939 34.564-56.87 48.363-24.438 16.111-51.401 27.285-79.535 35.015-38.093 10.467-79.074 8.924-118.229 7.965-31.108-.763-62.953-9.946-91.359-22.103-24.629-10.54-47.167-25.373-67.712-42.457C140.91 649.942 103.543 573.61 96.025 494.67c-2.112-22.173-.166-45.434-.166-67.713v-134.35c0-59.865 5.158-122.647-6.45-181.643-3.764-19.13-11.289-52.633-35.468-53.74Z"/></svg>