<?xml version="1.0" encoding="UTF-8"?>
<svg xmlns="http://www.w3.org/2000/svg" xmlns:xlink="http://www.w3.org/1999/xlink" viewBox="0 0 48 48" width="48px" height="48px">
<g id="surface351740">
<path style=" stroke:none;fill-rule:nonzero;fill:rgb(27.843139%,27.450982%,27.450982%);fill-opacity:1;" d="M 5.5 40.5 L 42.5 40.5 C 44.433594 40.5 46 38.933594 46 37 L 46 11 C 46 9.066406 44.433594 7.5 42.5 7.5 L 5.5 7.5 C 3.566406 7.5 2 9.066406 2 11 L 2 37 C 2 38.933594 3.566406 40.5 5.5 40.5 Z M 5.5 40.5 "/>
<path style=" stroke:none;fill-rule:nonzero;fill:rgb(22.352941%,21.960784%,21.960784%);fill-opacity:1;" d="M 26 40.5 L 42.5 40.5 C 44.433594 40.5 46 38.933594 46 37 L 46 11 C 46 9.066406 44.433594 7.5 42.5 7.5 L 5.5 7.5 C 3.566406 7.5 2 9.066406 2 11 Z M 26 40.5 "/>
<path style=" stroke:none;fill-rule:nonzero;fill:rgb(27.843139%,27.450982%,27.450982%);fill-opacity:1;" d="M 6.746094 40.5 L 42.5 40.5 C 44.433594 40.5 46 38.933594 46 37 L 46 11.5 Z M 6.746094 40.5 "/>
<path style=" stroke:none;fill-rule:nonzero;fill:rgb(27.843139%,27.450982%,27.450982%);fill-opacity:1;" d="M 25.746094 40.5 L 42.5 40.5 C 44.433594 40.5 46 38.933594 46 37 L 46 11.5 L 18.769531 31.617188 Z M 25.746094 40.5 "/>
<path style=" stroke:none;fill-rule:nonzero;fill:rgb(80.784315%,66.666669%,21.568628%);fill-opacity:1;" d="M 42.5 9.5 L 5.5 9.5 C 3.566406 9.5 2 9.066406 2 11 L 2 37 C 2 38.933594 3.566406 40.5 5.5 40.5 L 7 40.5 L 7 12 L 41 12 L 41 40.5 L 42.5 40.5 C 44.433594 40.5 46 38.933594 46 37 L 46 11 C 46 9.066406 44.433594 9.5 42.5 9.5 Z M 42.5 9.5 "/>
<path style=" stroke:none;fill-rule:nonzero;fill:rgb(21.568628%,21.568628%,21.568628%);fill-opacity:1;" d="M 42.5 7.5 L 5.5 7.5 C 3.566406 7.5 2 9.035156 2 11 C 2 12.207031 3.519531 13.257812 3.519531 13.257812 L 24 27.757812 L 44.480469 13.257812 C 44.480469 13.257812 46 12.207031 46 11 C 46 9.035156 44.433594 7.5 42.5 7.5 Z M 42.5 7.5 "/>
<path style=" stroke:none;fill-rule:nonzero;fill:rgb(80.784315%,66.666669%,21.568628%);fill-opacity:1;" d="M 43.246094 7.582031 L 24 21 L 4.753906 7.582031 C 3.179688 7.917969 2 9.296875 2 11 C 2 12.207031 3.519531 13.257812 3.519531 13.257812 L 24 27.757812 L 44.480469 13.257812 C 44.480469 13.257812 46 12.207031 46 11 C 46 9.296875 44.820312 7.917969 43.246094 7.582031 Z M 43.246094 7.582031 "/>
</g>
</svg>
