<svg version="1.1" xmlns="http://www.w3.org/2000/svg" xmlns:xlink="http://www.w3.org/1999/xlink" viewBox="0 0 172 172"><g fill="none" fill-rule="nonzero" stroke="none" stroke-width="1" stroke-linecap="butt" stroke-linejoin="miter" stroke-miterlimit="10" stroke-dasharray="" stroke-dashoffset="0" font-family="none" font-weight="none" font-size="none" text-anchor="none" style="mix-blend-mode: normal"><path d="M0,172v-172h172v172z" fill="none"></path><g fill="#ae8b19"><path d="M20.64,6.88c-1.89469,0 -3.44,1.54531 -3.44,3.44v123.84c0,1.90813 1.54531,3.44 3.44,3.44c41.48156,0 57.87531,9.23156 61.92,12.04v-126.7425c-8.4925,-6.57094 -26.7675,-16.0175 -61.92,-16.0175zM151.36,6.88c-35.1525,0 -53.4275,9.44656 -61.92,16.0175v126.7425c4.04469,-2.80844 20.45188,-12.04 61.92,-12.04c1.90813,0 3.44,-1.53187 3.44,-3.44v-123.84c0,-1.89469 -1.53187,-3.44 -3.44,-3.44zM9.7825,27.52c-5.40187,0 -9.7825,4.38063 -9.7825,9.7825v114.595c0,5.40188 4.38063,9.7825 9.7825,9.7825h57.19c2.44563,3.37281 8.69406,10.32 19.0275,10.32c10.33344,0 16.58188,-6.94719 19.0275,-10.32h57.19c5.40188,0 9.7825,-4.36719 9.7825,-9.7825v-114.595c0,-5.40187 -4.38062,-9.7825 -9.7825,-9.7825h-0.5375v106.64c0,5.68406 -4.63594,10.32 -10.32,10.32c-40.42,0 -55.45656,8.94938 -58.05,10.75l-0.43,0.43c-2.39187,1.89469 -3.49375,4.945 -6.7725,4.945c-3.27875,0 -3.82969,-2.75469 -6.665,-4.73l-0.7525,-0.645c-2.59344,-1.80062 -17.60312,-10.75 -58.05,-10.75c-5.68406,0 -10.32,-4.63594 -10.32,-10.32v-106.64z"></path></g></g></svg>