<svg xmlns="http://www.w3.org/2000/svg" width="645.433" height="695.142"><defs><clipPath id="A"><path d="M-2009.301-17.713h585.529v724.185h-585.529z" fill="#fbbf24" fill-opacity="1" stroke-width="58.967" stroke-linejoin="round" stroke-miterlimit="1.4" paint-order="markers stroke fill"/></clipPath></defs><path d="M0 5.057c32.67 54.459 16.725 120.029 19.282 180.065.962 80.699-2.517 161.566 3.197 242.112 8.679 118.147 95.24 228.019 211.339 256.681 98.854 24.808 213.859 11.449 290.673-60.529 66.768-58.781 101.062-147.729 100.229-235.771l-.011-308.265c-3.264-24.372 16.536-61.424 16.103-73.724-31.486 14.258-28.471 56.677-33.655 85.71-7.795 105.758 3.7 211.898-1.722 317.728-5.577 115.084-86.004 225.101-198.594 255.826-48.563 12.828-100.306 11.944-149.728 5.034C141.026 647.595 52.266 541.129 40.5 425.073c-3.212-48.182.197-96.605-.905-144.903-2.163-79.964 8.851-161.137-9.612-239.772C25.81 25.54 18.098 5.995 0 5.057z" fill="#ceaa37"/><path d="M21.821.492c34.766 35.213 89.756 39.811 136.762 36.714 32.558-4.929 64.934-13.748 97.207-2.092 15.703 8.553 53.749-6.116 54.243 14.442l-.439 521.08c4.205 25.064-17.16 67.786-15.901 77.436 32.499-21.076 31.833-65.717 34.748-100.282l-.143-208.345c30.869.295 61.867-3.545 90.904-14.039 23.997 9.945 61.957 9.693 71.438-20.138-10.577-4.1-46.371 13.565-65.633-3.621-31.141-.782-70.927 22.142-96.709 9.648l.244-102.831c25.944-9.604 60.253-3.705 87.166-17.479 31.819 4.313 65.249 16.211 97.848 6.292 23.009-.915 50.549-47.592 12.556-24.074-33.421 13.297-72.343 10.858-103.321-7.626-30.13 1.454-69.306 23.485-94.493 12.776V40.071c36.287 4.25 70.812-14.842 106.418-10.132 56.763 11.704 121.361 16.931 173.045-14.114 26.137-17.26 7.333-15.812-10.799-8.077-54.868 14.548-114.587 13.858-167.933-6.327-26.499-3.089-51.545 12.284-78.388 12.174-42.925 5.304-86.982 1.236-127.836-13.005-30.456 3.065-60.634 14.494-92.035 14.204C93.976 16.905 56.729 12.479 21.821.492z"/><g fill="#ceaa37"><path d="M21.821.492c34.766 35.213 89.756 39.811 136.762 36.714 32.558-4.929 64.934-13.748 97.207-2.092 15.703 8.553 53.749-6.116 54.243 14.442l-.439 521.08c4.205 25.064-17.16 67.786-15.901 77.436 32.499-21.076 31.833-65.717 34.748-100.282l-.143-208.345c30.869.295 61.867-3.545 90.904-14.039 23.997 9.945 61.957 9.693 71.438-20.138-10.577-4.1-46.371 13.565-65.633-3.621-31.141-.782-70.927 22.142-96.709 9.648l.244-102.831c25.944-9.604 60.253-3.705 87.166-17.479 31.819 4.313 65.249 16.211 97.848 6.292 23.009-.915 50.549-47.592 12.556-24.074-33.421 13.297-72.343 10.858-103.321-7.626-30.13 1.454-69.306 23.485-94.493 12.776V40.071c36.287 4.25 70.812-14.842 106.418-10.132 56.763 11.704 121.361 16.931 173.045-14.114 26.137-17.26 7.333-15.812-10.799-8.077-54.868 14.548-114.587 13.858-167.933-6.327-26.499-3.089-51.545 12.284-78.388 12.174-42.925 5.304-86.982 1.236-127.836-13.005-30.456 3.065-60.634 14.494-92.035 14.204C93.974 16.905 56.735 12.478 21.819.493"/><path d="M-1402.9 512.823c-36.82-37.294-95.06-42.164-144.845-38.884-34.482 5.22-68.771 14.56-102.952 2.216-16.631-9.059-56.926 6.478-57.449-15.296l.631-555.419c-3.819-25.684 18.352-68.95 16.674-78.47-34.42 22.322-33.714 69.6-36.802 106.209l.152 220.658c-39.057-6.827-76.907 18.678-113.635 10.302-21.383-12.754-68.095 16.2-53.754 28.801 30.995-21.721 62.148 10.714 93.046-2.998 20.452-.817 76.261-28.248 74.343 3.755l-.258 98.862c-27.477 10.171-63.814 3.924-92.317 18.512-33.699-4.568-69.106-17.169-103.63-6.663-24.369.969-53.536 50.404-13.298 25.496 35.396-14.083 76.619-11.5 109.427 8.076 31.911-1.54 73.401-24.873 100.077-13.531v146.454c-38.431-4.502-74.997 15.719-112.707 10.731-60.118-12.396-128.534-17.932-183.272 14.949-27.682 18.28-7.767 16.747 11.437 8.554 58.111-15.407 121.359-14.677 177.858 6.701 28.065 3.272 54.591-13.009 83.021-12.894 45.462-5.617 92.122-1.31 135.391 13.774 32.256-3.246 64.218-15.351 97.474-15.044 38.971-2.235 78.41 2.454 115.39 15.147" clip-path="url(#A)" transform="matrix(.944198 0 0 .944198 1941.573578 37.171778)" fill-opacity=".257"/></g></svg>