<svg version="1.1" xmlns="http://www.w3.org/2000/svg" xmlns:xlink="http://www.w3.org/1999/xlink" viewBox="0 0 172 172"><g fill="none" fill-rule="nonzero" stroke="none" stroke-width="1" stroke-linecap="butt" stroke-linejoin="miter" stroke-miterlimit="10" stroke-dasharray="" stroke-dashoffset="0" font-family="none" font-weight="none" font-size="none" text-anchor="none" style="mix-blend-mode: normal"><path d="M0,172v-172h172v172z" fill="none"></path><g fill="#fbbf24"><path d="M157.66667,0h-143.33333c-7.91917,0 -14.33333,6.41417 -14.33333,14.33333v143.33333c0,7.91917 6.41417,14.33333 14.33333,14.33333h143.33333c7.91917,0 14.33333,-6.41417 14.33333,-14.33333v-143.33333c0,-7.91917 -6.41417,-14.33333 -14.33333,-14.33333zM150.1345,42.0325l-19.47183,91.23167c-1.46917,6.44283 -5.30333,8.041 -10.73567,5.00233l-29.66283,-21.72217l-14.31183,13.68117c-1.58383,1.57667 -2.9025,2.88817 -5.9555,2.88817l2.1285,-30.014l54.96833,-49.35683c2.3865,-2.12133 -0.516,-3.2895 -3.7195,-1.17533l-67.95433,42.51983l-29.25433,-9.10167c-6.364,-1.97083 -6.47867,-6.321 1.32583,-9.35967l114.43733,-43.80267c5.29617,-1.97083 9.933,1.16817 8.20583,9.20917z"></path></g></g></svg>